<mxfile host="Electron" modified="2024-02-02T15:02:04.669Z" agent="Mozilla/5.0 (Macintosh; Intel Mac OS X 10_15_7) AppleWebKit/537.36 (KHTML, like Gecko) draw.io/23.0.2 Chrome/120.0.6099.109 Electron/28.1.0 Safari/537.36" version="23.0.2" etag="rEH5VySHHAnlGVqiP8sr" type="device">
  <diagram id="c90fJ05idYj-GlXCdJGa" name="第 1 页">
    <mxGraphModel dx="954" dy="674" grid="1" gridSize="10" guides="1" tooltips="1" connect="1" arrows="1" fold="1" page="1" pageScale="1" pageWidth="827" pageHeight="1169" math="0" shadow="0">
      <root>
        <mxCell id="0" />
        <mxCell id="1" parent="0" />
        <mxCell id="4" value="" style="edgeStyle=none;html=1;fontFamily=SimSun;fontSize=19;" parent="1" source="2" target="3" edge="1">
          <mxGeometry relative="1" as="geometry" />
        </mxCell>
        <mxCell id="20" value="洗碗" style="edgeLabel;html=1;align=center;verticalAlign=middle;resizable=0;points=[];fontFamily=SimSun;fontSize=19;labelBackgroundColor=none;" parent="4" vertex="1" connectable="0">
          <mxGeometry x="-0.3021" y="3" relative="1" as="geometry">
            <mxPoint x="-8" y="-21" as="offset" />
          </mxGeometry>
        </mxCell>
        <mxCell id="21" value="10" style="edgeLabel;html=1;align=center;verticalAlign=middle;resizable=0;points=[];fontSize=19;fontFamily=SimSun;labelBackgroundColor=none;" parent="4" vertex="1" connectable="0">
          <mxGeometry x="-0.6439" relative="1" as="geometry">
            <mxPoint x="48" y="-25" as="offset" />
          </mxGeometry>
        </mxCell>
        <mxCell id="11" value="" style="edgeStyle=none;html=1;fontFamily=SimSun;fontSize=19;" parent="1" source="2" target="10" edge="1">
          <mxGeometry relative="1" as="geometry" />
        </mxCell>
        <mxCell id="16" value="" style="edgeStyle=none;html=1;fontFamily=SimSun;fontSize=19;" parent="1" source="2" target="15" edge="1">
          <mxGeometry relative="1" as="geometry" />
        </mxCell>
        <mxCell id="2" value="" style="ellipse;whiteSpace=wrap;html=1;fontFamily=SimSun;fontSize=19;" parent="1" vertex="1">
          <mxGeometry x="80" y="160" width="30" height="30" as="geometry" />
        </mxCell>
        <mxCell id="7" value="" style="edgeStyle=none;html=1;fontFamily=SimSun;fontSize=19;" parent="1" source="3" target="6" edge="1">
          <mxGeometry relative="1" as="geometry" />
        </mxCell>
        <mxCell id="3" value="" style="ellipse;whiteSpace=wrap;html=1;fontFamily=SimSun;fontSize=19;" parent="1" vertex="1">
          <mxGeometry x="170" y="80" width="30" height="30" as="geometry" />
        </mxCell>
        <mxCell id="9" value="" style="edgeStyle=none;html=1;fontFamily=SimSun;fontSize=19;" parent="1" source="6" target="8" edge="1">
          <mxGeometry relative="1" as="geometry" />
        </mxCell>
        <mxCell id="6" value="" style="ellipse;whiteSpace=wrap;html=1;fontFamily=SimSun;fontSize=19;" parent="1" vertex="1">
          <mxGeometry x="360" y="80" width="30" height="30" as="geometry" />
        </mxCell>
        <mxCell id="8" value="" style="ellipse;whiteSpace=wrap;html=1;fontFamily=SimSun;fontSize=19;" parent="1" vertex="1">
          <mxGeometry x="440" y="160" width="30" height="30" as="geometry" />
        </mxCell>
        <mxCell id="13" value="" style="edgeStyle=none;html=1;fontFamily=SimSun;fontSize=19;" parent="1" source="10" target="12" edge="1">
          <mxGeometry relative="1" as="geometry" />
        </mxCell>
        <mxCell id="10" value="" style="ellipse;whiteSpace=wrap;html=1;fontFamily=SimSun;fontSize=19;" parent="1" vertex="1">
          <mxGeometry x="250" y="160" width="30" height="30" as="geometry" />
        </mxCell>
        <mxCell id="14" style="edgeStyle=none;html=1;fontFamily=SimSun;fontSize=19;" parent="1" source="12" target="8" edge="1">
          <mxGeometry relative="1" as="geometry" />
        </mxCell>
        <mxCell id="12" value="" style="ellipse;whiteSpace=wrap;html=1;fontFamily=SimSun;fontSize=19;" parent="1" vertex="1">
          <mxGeometry x="340" y="160" width="30" height="30" as="geometry" />
        </mxCell>
        <mxCell id="17" style="edgeStyle=none;html=1;fontFamily=SimSun;fontSize=19;" parent="1" source="15" target="10" edge="1">
          <mxGeometry relative="1" as="geometry" />
        </mxCell>
        <mxCell id="15" value="" style="ellipse;whiteSpace=wrap;html=1;fontFamily=SimSun;fontSize=19;" parent="1" vertex="1">
          <mxGeometry x="170" y="240" width="30" height="30" as="geometry" />
        </mxCell>
        <mxCell id="22" value="打扫厨房" style="text;html=1;align=center;verticalAlign=middle;resizable=0;points=[];autosize=1;strokeColor=none;fillColor=none;fontSize=19;fontFamily=SimSun;" parent="1" vertex="1">
          <mxGeometry x="220" y="60" width="100" height="40" as="geometry" />
        </mxCell>
        <mxCell id="24" value="20" style="text;html=1;align=center;verticalAlign=middle;resizable=0;points=[];autosize=1;strokeColor=none;fillColor=none;fontSize=19;fontFamily=SimSun;" parent="1" vertex="1">
          <mxGeometry x="250" y="90" width="40" height="40" as="geometry" />
        </mxCell>
        <mxCell id="25" value="10" style="text;html=1;align=center;verticalAlign=middle;resizable=0;points=[];autosize=1;strokeColor=none;fillColor=none;fontSize=19;fontFamily=SimSun;" parent="1" vertex="1">
          <mxGeometry x="367" y="110" width="40" height="40" as="geometry" />
        </mxCell>
        <mxCell id="26" value="20" style="text;html=1;align=center;verticalAlign=middle;resizable=0;points=[];autosize=1;strokeColor=none;fillColor=none;fontSize=19;fontFamily=SimSun;" parent="1" vertex="1">
          <mxGeometry x="160" y="170" width="40" height="40" as="geometry" />
        </mxCell>
        <mxCell id="27" value="30" style="text;html=1;align=center;verticalAlign=middle;resizable=0;points=[];autosize=1;strokeColor=none;fillColor=none;fontSize=19;fontFamily=SimSun;" parent="1" vertex="1">
          <mxGeometry x="290" y="170" width="40" height="40" as="geometry" />
        </mxCell>
        <mxCell id="28" value="10" style="text;html=1;align=center;verticalAlign=middle;resizable=0;points=[];autosize=1;strokeColor=none;fillColor=none;fontSize=19;fontFamily=SimSun;" parent="1" vertex="1">
          <mxGeometry x="380" y="170" width="40" height="40" as="geometry" />
        </mxCell>
        <mxCell id="29" value="10" style="text;html=1;align=center;verticalAlign=middle;resizable=0;points=[];autosize=1;strokeColor=none;fillColor=none;fontSize=19;fontFamily=SimSun;labelBackgroundColor=none;" parent="1" vertex="1">
          <mxGeometry x="138" y="195" width="40" height="40" as="geometry" />
        </mxCell>
        <mxCell id="30" value="30" style="text;html=1;align=center;verticalAlign=middle;resizable=0;points=[];autosize=1;strokeColor=none;fillColor=none;fontSize=19;fontFamily=SimSun;" parent="1" vertex="1">
          <mxGeometry x="190" y="195" width="40" height="40" as="geometry" />
        </mxCell>
        <mxCell id="31" value="拖地" style="text;html=1;align=center;verticalAlign=middle;resizable=0;points=[];autosize=1;strokeColor=none;fillColor=none;fontSize=19;fontFamily=SimSun;rotation=0;" parent="1" vertex="1">
          <mxGeometry x="406" y="100" width="60" height="40" as="geometry" />
        </mxCell>
        <mxCell id="32" value="机洗衣服" style="text;html=1;align=center;verticalAlign=middle;resizable=0;points=[];autosize=1;strokeColor=none;fillColor=none;fontSize=19;fontFamily=SimSun;" parent="1" vertex="1">
          <mxGeometry x="130" y="140" width="100" height="40" as="geometry" />
        </mxCell>
        <mxCell id="33" value="烘干" style="text;html=1;align=center;verticalAlign=middle;resizable=0;points=[];autosize=1;strokeColor=none;fillColor=none;fontSize=19;fontFamily=SimSun;" parent="1" vertex="1">
          <mxGeometry x="280" y="140" width="60" height="40" as="geometry" />
        </mxCell>
        <mxCell id="34" value="叠衣服" style="text;html=1;align=center;verticalAlign=middle;resizable=0;points=[];autosize=1;strokeColor=none;fillColor=none;fontSize=19;fontFamily=SimSun;" parent="1" vertex="1">
          <mxGeometry x="360" y="140" width="80" height="40" as="geometry" />
        </mxCell>
        <mxCell id="35" value="浸泡" style="text;html=1;align=center;verticalAlign=middle;resizable=0;points=[];autosize=1;strokeColor=none;fillColor=none;fontSize=19;fontFamily=SimSun;" parent="1" vertex="1">
          <mxGeometry x="90" y="211" width="60" height="40" as="geometry" />
        </mxCell>
        <mxCell id="36" value="手洗衣服" style="text;html=1;align=center;verticalAlign=middle;resizable=0;points=[];autosize=1;strokeColor=none;fillColor=none;fontSize=19;fontFamily=SimSun;" parent="1" vertex="1">
          <mxGeometry x="212" y="210" width="100" height="40" as="geometry" />
        </mxCell>
      </root>
    </mxGraphModel>
  </diagram>
</mxfile>
